# xmcd
#
# Track frame offsets:
# 150
# 32639
# 49167
# 66124
# 85092
# 108834
# 131656
# 161507
# 187682
# 214533
# 231444
#
# Disc length: 3365 seconds
#
#
# Revision: 3
# Processed by: cddbd v1.5.1PL0 Copyright (c) Steve Scherf et al.
# Submitted via: FreeRIP 2.90 
#
DISCID=890d230b
DTITLE=Rolling Stones - Steel Wheels Rehearsals
DYEAR=1900
DGENRE=
TTITLE0=Spur 1
TTITLE1=Spur 2
TTITLE2=Spur 3
TTITLE3=Spur 4
TTITLE4=Spur 5
TTITLE5=Spur 6
TTITLE6=Spur 7
TTITLE7=Spur 8
TTITLE8=Spur 9
TTITLE9=Spur 10
TTITLE10=Spur 11
EXTD=
EXTT0=
EXTT1=
EXTT2=
EXTT3=
EXTT4=
EXTT5=
EXTT6=
EXTT7=
EXTT8=
EXTT9=
EXTT10=
PLAYORDER=
